#!OML:ASF I:\golf\golf\golf 2\Subject 1\2002-09-07\Subject1.ASF
:FULLY-SPECIFIED
:DEGREES
596
root -0.536759 18.1989 -7.03584 9.16729 1.3252 -8.08501
lowerback -6.78878 1.28509 -0.245616
upperback -2.13236 1.64656 4.41245
thorax 1.465 0.835956 4.83824
lowerneck -25.6144 -1.51721 -0.208716
upperneck 20.4298 -1.28306 -2.81901
head 10.7881 -0.972753 -1.20284
rclavicle 1.00759e-014 2.36554e-014
rhumerus -24.6616 1.01778 -85.66
rradius 27.3468
rwrist -8.83608
rhand -20.663 11.5142
rfingers 7.12502
rthumb 5.69975 -18.3892
lclavicle 1.00759e-014 2.36554e-014
lhumerus -30.4437 1.55886 88.1382
lradius 27.0249
lwrist 3.65195
lhand -10.8459 33.1151
lfingers 7.12502
lthumb 15.1689 62.5391
rfemur -9.94018 -2.7474 29.1154
rtibia 19.2177
rfoot -10.8822 -10.4798
rtoes -1.05934
lfemur -11.2915 0.342282 -9.46016
ltibia 23.317
lfoot -15.471 5.39591
ltoes -11.2777
597
root -0.549055 18.2004 -7.02676 9.16459 1.29134 -7.93006
lowerback -6.79568 1.27858 -0.329709
upperback -2.15664 1.64525 4.35217
thorax 1.44329 0.835758 4.82241
lowerneck -25.7308 -1.49747 -0.254829
upperneck 20.6631 -1.25663 -2.72661
head 10.897 -0.953792 -1.16219
rclavicle -3.2054e-015 -1.98785e-014
rhumerus -24.7925 1.11599 -85.8056
rradius 27.312
rwrist -9.06866
rhand -20.5203 11.5863
rfingers 7.12502
rthumb 5.83746 -18.3133
lclavicle -3.2054e-015 -1.98785e-014
lhumerus -30.5093 1.30766 88.1856
lradius 27.3195
lwrist 4.22513
lhand -11.5096 32.0511
lfingers 7.12502
lthumb 14.5296 61.5223
rfemur -9.86122 -2.73523 28.9792
rtibia 19.1473
rfoot -11.0901 -10.423
rtoes 0.387818
lfemur -11.2249 0.271112 -9.60231
ltibia 23.3105
lfoot -15.4759 5.46292
ltoes -11.0985
598
root -0.56199 18.2025 -7.02092 9.21976 1.39281 -7.97322
lowerback -6.78277 1.29707 -0.20527
upperback -2.25979 1.66648 4.31173
thorax 1.3327 0.848784 4.70827
lowerneck -25.8052 -1.54931 -0.31121
upperneck 20.975 -1.33662 -2.5922
head 11.0266 -0.978387 -1.12247
rclavicle -8.08805e-015 4.17448e-015
rhumerus -25.0343 0.988001 -85.9056
rradius 27.3518
rwrist -9.22709
rhand -20.532 11.5862
rfingers 7.12502
rthumb 5.82618 -18.3137
lclavicle -8.08805e-015 4.17448e-015
lhumerus -30.5902 1.03269 88.2042
lradius 27.5236
lwrist 4.63639
lhand -11.4041 32.7061
lfingers 7.12502
lthumb 14.6311 62.1699
rfemur -9.89514 -2.73292 29.0905
rtibia 19.1249
rfoot -11.3212 -10.4488
rtoes 1.8624
lfemur -11.2866 0.252617 -9.49163
ltibia 23.2834
lfoot -15.4245 5.4078
ltoes -11.2577
599
root -0.574524 18.2037 -7.01898 9.30772 1.48471 -8.02919
lowerback -6.80488 1.31802 -0.123868
upperback -2.34498 1.69193 4.30445
thorax 1.25754 0.86332 4.6553
lowerneck -25.7961 -1.59629 -0.337419
upperneck 21.0957 -1.40502 -2.53678
head 11.0696 -1.00455 -1.11086
rclavicle 1.95865e-014 1.47101e-014
rhumerus -25.1993 0.767215 -85.9343
rradius 27.3422
rwrist -9.1349
rhand -20.6815 11.5509
rfingers 7.12502
rthumb 5.68184 -18.3529
lclavicle 1.95865e-014 1.47101e-014
lhumerus -30.5951 0.875885 88.2099
lradius 27.6959
lwrist 4.72267
lhand -11.152 33.591
lfingers 7.12502
lthumb 14.874 63.0371
rfemur -9.99249 -2.73685 29.2179
rtibia 19.11
rfoot -11.1637 -10.5446
rtoes 0.721067
lfemur -11.4071 0.235278 -9.36638
ltibia 23.264
lfoot -15.3395 5.33261
ltoes -10.8783
600
root -0.587081 18.2035 -7.01597 9.34492 1.48541 -8.07434
lowerback -6.87446 1.32974 -0.131359
upperback -2.35718 1.70597 4.36376
thorax 1.28026 0.870553 4.72492
lowerneck -25.7105 -1.57305 -0.287787
upperneck 21.0385 -1.36221 -2.65422
head 11.0322 -0.996192 -1.15304
rclavicle -8.55395e-015 -8.54774e-015
rhumerus -25.274 0.580305 -85.9066
rradius 27.2597
rwrist -8.86856
rhand -20.7744 11.4352
rfingers 7.12502
rthumb 5.5922 -18.471
lclavicle -8.55395e-015 -8.54774e-015
lhumerus -30.542 0.921249 88.2551
lradius 27.8643
lwrist 4.66553
lhand -11.1005 33.9877
lfingers 7.12502
lthumb 14.9237 63.4301
rfemur -10.028 -2.71561 29.3124
rtibia 19.1077
rfoot -10.9701 -10.6389
rtoes -0.338473
lfemur -11.4392 0.153824 -9.26934
ltibia 23.2583
lfoot -15.2733 5.39434
ltoes -10.53
601
root -0.601154 18.2052 -7.01228 9.42371 1.55626 -8.02628
lowerback -7.03052 1.28346 -0.2776
upperback -2.35736 1.64918 4.44345
thorax 1.36459 0.841775 4.89268
lowerneck -25.6093 -1.52165 -0.238078
upperneck 20.9136 -1.26841 -2.82119
head 10.9675 -0.970876 -1.20368
rclavicle 4.46272e-014 3.71727e-014
rhumerus -25.3328 0.531437 -85.8541
rradius 27.2061
rwrist -8.70288
rhand -20.7938 11.3911
rfingers 7.12502
rthumb 5.57345 -18.5156
lclavicle 4.46272e-014 3.71727e-014
lhumerus -30.4864 1.03184 88.3323
lradius 28.0764
lwrist 4.63889
lhand -10.8772 34.3559
lfingers 7.12502
lthumb 15.1387 63.7822
rfemur -10.1184 -2.7344 29.3209
rtibia 19.1386
rfoot -10.8551 -10.8248
rtoes -0.117516
lfemur -11.5234 0.0614159 -9.25874
ltibia 23.2388
lfoot -15.2359 5.37371
ltoes -10.0978
